<svg width="711" height="356" viewBox="0 0 711 356" fill="none" xmlns="http://www.w3.org/2000/svg">
<mask id="path-1-inside-1_2617_105" fill="white">
<path d="M293.282 133.91L297.115 132.435L301.538 125.949V121.526L305.961 118.872L311.858 114.744L318.05 117.398L327.19 111.796L333.382 110.911L340.458 111.796L346.65 109.142L349.304 114.744L346.65 117.398L353.432 121.526H357.265L361.688 125.949L367.585 128.013L370.533 125.949V121.526H377.02L384.686 125.949H392.352H399.429L403.262 133.91L405.031 138.332L408.274 144.524L410.633 150.421V155.139L414.761 158.677L417.12 165.753L421.837 168.997L425.965 174.009L427.734 178.727L430.978 180.791L436.285 181.97L446.31 178.727V186.098L441.887 193.469L437.759 199.956L432.157 205.263L425.965 212.34L420.658 218.237L417.12 224.724L418.889 232.685L421.837 236.518V243.004V248.901L418.889 253.914L413.286 255.388L410.633 259.221L406.8 263.644L408.274 271.015L406.8 274.259L402.672 277.207L400.608 279.861V282.809L399.723 286.347L392.647 294.898L386.16 299.321L380.558 301.974L377.61 299.321L373.776 301.974H368.764L366.7 299.321V294.898L364.341 289.591L359.624 283.989V279.861L357.855 271.015L355.201 263.644L351.368 257.747V252.44L353.432 247.427L355.201 241.53V236.518V232.685L353.432 228.262L351.368 221.775L349.304 219.416L346.65 215.288V210.571V203.494V199.956L342.522 196.713H336.92L334.561 193.469L330.728 191.405L325.716 193.469L319.524 195.239H311.858L304.192 196.713L299.179 195.239L291.808 189.341L289.744 186.098L287.09 181.97L284.732 178.727L283.257 176.663V172.83L281.193 169.881L283.257 166.343V160.151V157.203V153.665V149.537L287.09 144.524L289.744 138.332L293.282 133.91Z"/>
</mask>
<path d="M293.282 133.91L297.115 132.435L301.538 125.949V121.526L305.961 118.872L311.858 114.744L318.05 117.398L327.19 111.796L333.382 110.911L340.458 111.796L346.65 109.142L349.304 114.744L346.65 117.398L353.432 121.526H357.265L361.688 125.949L367.585 128.013L370.533 125.949V121.526H377.02L384.686 125.949H392.352H399.429L403.262 133.91L405.031 138.332L408.274 144.524L410.633 150.421V155.139L414.761 158.677L417.12 165.753L421.837 168.997L425.965 174.009L427.734 178.727L430.978 180.791L436.285 181.97L446.31 178.727V186.098L441.887 193.469L437.759 199.956L432.157 205.263L425.965 212.34L420.658 218.237L417.12 224.724L418.889 232.685L421.837 236.518V243.004V248.901L418.889 253.914L413.286 255.388L410.633 259.221L406.8 263.644L408.274 271.015L406.8 274.259L402.672 277.207L400.608 279.861V282.809L399.723 286.347L392.647 294.898L386.16 299.321L380.558 301.974L377.61 299.321L373.776 301.974H368.764L366.7 299.321V294.898L364.341 289.591L359.624 283.989V279.861L357.855 271.015L355.201 263.644L351.368 257.747V252.44L353.432 247.427L355.201 241.53V236.518V232.685L353.432 228.262L351.368 221.775L349.304 219.416L346.65 215.288V210.571V203.494V199.956L342.522 196.713H336.92L334.561 193.469L330.728 191.405L325.716 193.469L319.524 195.239H311.858L304.192 196.713L299.179 195.239L291.808 189.341L289.744 186.098L287.09 181.97L284.732 178.727L283.257 176.663V172.83L281.193 169.881L283.257 166.343V160.151V157.203V153.665V149.537L287.09 144.524L289.744 138.332L293.282 133.91Z" stroke="#DBD7D1" stroke-width="2.21894" mask="url(#path-1-inside-1_2617_105)"/>
<path d="M441.119 245.44L441.17 245.384L441.204 245.316L442.226 243.272L443.396 245.222V251.192L441.653 258.164L437.835 267.563L437.794 267.663V267.772V273.439L434.876 276.357H429.766L427.404 273.471V267.896L430.005 262.407L430.058 262.294V262.169V254.823L435.383 251.74L435.459 251.697L435.517 251.632L441.119 245.44Z" stroke="#DBD7D1" stroke-width="1.10947"/>
<path d="M651.343 325.223L649.833 323.928L651.603 319.63H655.764L657.537 320.961L655.598 323.627L651.343 325.223Z" stroke="#DBD7D1" stroke-width="1.10947"/>
<path d="M620.462 295.238L620.4 295.25L620.343 295.275L613.079 298.471H603.465H603.318L603.19 298.545L599.069 300.899L595.042 303.047L593.405 301.177V299.112L595.443 292.708L595.469 292.626V292.54V283.694V274.697L598.274 269.649L608.628 263.609H613.195H613.425L613.588 263.447L620.959 256.075L620.983 256.051L621.004 256.024L623.054 253.389L626.774 249.383L632.613 247.437L636.535 249.398L636.963 249.612L637.238 249.22L639.245 246.353L642.922 243.807L649.875 241.779C651.418 241.553 652.5 241.554 653.237 241.683C653.982 241.814 654.311 242.062 654.454 242.268C654.594 242.468 654.632 242.738 654.549 243.089C654.465 243.443 654.268 243.822 654.027 244.151L650.784 248.574L650.454 249.023L650.905 249.35L654.148 251.709L654.172 251.726L654.197 251.741L661.863 256.164L662.281 256.404L662.577 256.025L667.885 249.243L668.003 249.093V248.902V244.651L670.502 241.016L671.636 244.644L671.67 244.755L671.746 244.842L675.444 249.109V256.863V257.047L675.555 257.195L678.178 260.694L682.579 269.494L682.608 269.552L682.649 269.601L686.943 274.754V279.795L684.625 289.356L680.321 295.381L675.684 298.569L675.57 298.648L675.506 298.77L671.726 306.04L667.251 309.676H663.025H662.795L662.633 309.838L660.617 311.854L657.988 313.431L654.722 311.798L654.605 311.74H654.474H649.907L646.773 309.912V306.397V306.254L646.703 306.128L645.229 303.474L645.222 303.462L645.215 303.45L642.266 298.732L641.936 298.204L641.449 298.593L638.985 300.564L635.778 295.487L635.68 295.331L635.508 295.265L631.675 293.791L631.579 293.754H631.476H628.233H628.18L628.128 293.764L620.462 295.238Z" stroke="#DBD7D1" stroke-width="1.10947"/>
<path d="M708.895 322.553L708.973 322.528L709.04 322.482L713.775 319.243V321.705L710.512 323.609L710.377 323.687L710.303 323.825L708.396 327.366H705.779H705.549L705.386 327.529L701.907 331.009L697.679 333.263H691.944C692.097 332.499 692.537 331.636 693.115 330.793C693.803 329.791 694.628 328.903 695.191 328.379L702.454 324.602L708.895 322.553Z" stroke="#DBD7D1" stroke-width="1.10947"/>
<path d="M182.713 353.904H179.336L180.356 350.591H184.044L190.651 354.261L186.295 355.35L182.927 353.947L182.824 353.904H182.713ZM128 216.405L124.997 212.857L128.057 207.016L132.165 200.56L134.222 197.621L134.323 197.478V197.303V193.175V193.096L134.301 193.02L132.259 186.02V185.374L133.376 186.491L133.722 186.837L134.109 186.537L136.762 184.473L136.809 184.436L136.848 184.39L139.63 181.051H142.614H142.887L143.053 180.835L145.835 177.218H148.089L148.827 179.874L149.02 180.572L149.643 180.204L152.2 178.693H156.261L158.757 180.911L158.846 180.991L158.96 181.026L163.677 182.5L163.83 182.548L163.984 182.507L169.405 181.081L172.642 182.43L179.336 190.579L179.353 190.6L179.372 190.619L182.321 193.567L182.483 193.73H182.713H187.348L193.844 195.707L196.669 200.51L198.67 204.797V208.213V208.531L198.945 208.692L202.446 210.734L205.655 213.36L205.808 213.485H206.006H209.957L211.876 214.856L211.899 214.872L211.923 214.886L216.051 217.245L216.179 217.318H216.326H222.38L227.262 219.902L232.855 223.14L232.878 223.154L232.903 223.165L235.821 224.492V227.673V232.528L231.21 240.021L227.113 244.704L226.976 244.861V245.069V251.556V260.545L222.142 268.792L218.204 270.199L218.167 270.212L218.133 270.23L211.941 273.473L211.875 273.508L211.82 273.559L207.397 277.687L207.221 277.851V278.092V282.159L205.485 289.971L200.56 298.082L196.944 301.42H193.623H190.379H189.445L189.892 302.241L191.594 305.36V309.645L188.142 312.035H184.187H183.633V312.59V317.342H178.585H178.031V317.897V321.14V321.392L178.22 321.558L180.271 323.353L178.078 328.286L178.031 328.394V328.512V330.871V333.524V333.692L178.124 333.832L180.389 337.23V340.433L178.124 343.831L177.886 344.187L178.171 344.507L180.322 346.928L179.536 349.481H178.698L171.298 346.35L167.558 340.309L167.549 340.294L167.539 340.28L162.764 333.54L164.576 331.211L164.692 331.061V330.871V327.037V326.898L164.626 326.774L162.562 322.941L162.54 322.9L162.512 322.864L158.5 317.707V312.59V312.561L158.498 312.532L157.023 298.379L157.022 298.364L157.019 298.348L154.962 285.713V273.964V263.055V262.847L154.826 262.691L148.929 255.909L148.877 255.849L148.81 255.806L141.526 251.145L136.883 244.76L132.198 237.148L128.087 227.456L128.002 227.257L127.806 227.168L124.887 225.841V219.68L127.927 217.193L128.364 216.835L128 216.405Z" stroke="#DBD7D1" stroke-width="1.10947"/>
<path d="M655.457 220.103L658.346 217.214L663.033 214.733L668.085 217.259L668.122 217.277L668.162 217.29L677.212 220.21L683.174 224.752L684.896 231.64L684.935 231.795L685.051 231.906L691.127 237.706L689.739 239.094L685.741 237.228L680.789 232.858L680.751 232.825L680.707 232.798L677.758 231.029L677.627 230.95H677.473H674.23H673.925L673.762 231.207L671.912 234.113L666.472 232.753L663.291 231.018L663.167 230.95H663.025H661.113L663.487 227.39L663.753 226.991L663.396 226.67L660.448 224.016L660.373 223.949L660.28 223.912L652.024 220.669L652.01 220.664L651.996 220.659L647.953 219.311V216.762V216.611L647.876 216.481L645.42 212.305H651.266V214.109V214.258L651.341 214.387L654.584 219.989L654.946 220.614L655.457 220.103Z" stroke="#DBD7D1" stroke-width="1.10947"/>
<path d="M602.324 198.63L602.344 198.615L602.362 198.599L608.101 193.434H611.997L613.47 195.889L611.788 200.655L611.709 200.877L611.815 201.088L613.525 204.509V208.321L611.867 210.532L611.867 210.532L611.859 210.542L607.437 216.734L607.333 216.879V217.057V219.45H602.094L594.697 216.605L591.904 212.137L590.814 205.869L596.342 203.105L596.387 203.083L596.427 203.053L602.324 198.63Z" stroke="#DBD7D1" stroke-width="1.10947"/>
<path d="M594.471 230.381L594.399 230.361H594.325H589.312H583.796L582.749 227.638H586.954H591.966H597.417L602.932 230.897L600.742 232.091L594.471 230.381Z" stroke="#DBD7D1" stroke-width="1.10947"/>
<path d="M568.586 211.812L568.567 211.77L568.54 211.731L562.643 203.18L562.609 203.132L562.566 203.091L557.729 198.538V195.488L566.526 199.22L569.382 203.789L569.44 203.883L569.53 203.947L575.49 208.204V210.867V211.075L575.627 211.232L581.681 218.152V222.366C581.681 223.136 581.46 223.623 581.157 223.942C580.845 224.27 580.387 224.481 579.815 224.584C578.706 224.785 577.335 224.551 576.352 224.241L572.382 219.988L568.586 211.812Z" stroke="#DBD7D1" stroke-width="1.10947"/>
<path d="M618.243 167.818V168.08L618.446 168.247L621.62 170.844L625.11 176.37L625.131 176.403L625.157 176.433L630.105 182.255L632.101 187.672V193.505H628.773L626.044 190.503L622.545 183.213L619.305 175.85L619.294 175.823L619.279 175.798L614.672 167.736L616.093 162.055C616.224 161.53 616.398 161.321 616.511 161.241C616.606 161.175 616.732 161.147 616.938 161.203C617.157 161.262 617.414 161.405 617.682 161.613C617.886 161.771 618.079 161.954 618.243 162.131V167.818Z" stroke="#DBD7D1" stroke-width="1.10947"/>
<path d="M568.609 192.999L568.587 192.931L568.548 192.871L563.626 185.343V177.707L566.054 180.136V183.739V183.86L566.104 183.969L567.578 187.212L567.608 187.278L567.654 187.334L570.308 190.577L570.37 190.654L570.456 190.704L575.307 193.558L577.258 198.297V204.709H575.948L571.213 200.809L568.609 192.999Z" stroke="#DBD7D1" stroke-width="1.10947"/>
<mask id="path-13-inside-2_2617_105" fill="white">
<path d="M545.38 154.549L542.726 149.536L533.586 151.01L531.522 156.907L526.804 160.151L517.959 168.407L516.484 173.124V182.265C515.777 187.926 511.865 186.982 509.998 185.803L504.69 175.188L498.204 160.151V152.779H494.371H490.243V148.062H485.82L480.808 140.985L477.564 143.639L469.308 140.985H461.937L457.514 137.447L447.195 136.268L442.477 130.666L439.234 128.012L437.17 130.666L440.708 134.794L442.477 140.985H447.195L450.438 145.113L455.745 140.985L458.694 143.639L464.886 148.062V152.779L460.168 160.151L453.976 163.099L447.195 166.932L440.708 170.471L435.695 175.188H429.503L426.555 170.471V165.163L423.312 160.151L417.709 154.549V149.536L408.864 139.216L406.21 132.14L402.967 134.794L399.429 125.063H404.736L406.21 117.987V111.5L401.198 113.269L394.711 111.5H387.635L383.802 103.834V101.181H380.263L376.725 103.834L378.494 107.962L376.725 111.5L372.597 109.436L374.072 106.488L369.059 103.834L366.995 96.1681L361.688 92.9248L354.022 87.6175C350.719 84.551 351.663 87.9123 352.547 89.9763L356.38 94.399C359.427 96.6595 365.049 101.181 363.162 101.181C361.275 101.181 361.393 105.702 361.688 107.962L356.38 101.181L348.125 94.399L343.997 91.4505L336.625 94.399H332.498L329.844 99.1166L323.652 103.834V109.436L316.281 111.5H309.499L304.192 107.962L306.256 94.399H318.345L320.998 91.4505V85.2586L316.281 79.9513L323.652 78.4771L329.844 74.9389L338.1 68.4522H341.343L343.997 65.7985V60.1963L347.24 57.5427V61.3757L351.073 60.1963V56.0684L348.125 54.0045L343.997 56.0684L339.574 54.0045V46.3384L352.547 36.6083L361.688 29.8267L369.059 25.6988H381.738L389.404 29.8267L401.198 31.301C404.972 34.3674 402.77 36.1169 401.198 36.6083H396.48L389.404 34.2495L396.48 40.1465H401.198L404.736 36.6083L408.864 34.2495L410.633 31.301L415.645 34.2495L423.312 31.301H433.337L443.656 29.8267H450.143L446.605 25.6988L448.079 22.7503H454.271L458.399 25.6988L464.591 22.7503L469.308 19.8018H475.795V16.5584L485.525 14.1996H491.717L494.96 11.8408H500.562L506.165 14.1996H514.42L516.484 16.5584L514.42 19.8018L525.33 21.276H527.689H532.996H538.009H547.444L558.058 25.6988H564.25H569.263L570.737 21.276L580.467 22.7503L591.966 25.6988H601.991H608.773L616.439 29.8267H630.887L633.54 28.0576H640.617L651.526 29.8267L661.256 32.7752L667.448 35.134H674.23L678.358 39.5568H669.807L665.384 36.6083L661.256 39.5568L667.448 42.5053V45.7487L661.256 50.1714H655.064C648.931 51.8226 650.15 54.5942 651.526 55.7736L656.539 57.8375L658.013 65.5037V73.4646H655.064L647.398 65.5037L642.386 57.8375L644.745 48.1075L642.386 45.7487L638.848 48.1075H635.014H630.887V53.1199H623.81H613.195L608.773 55.7736L605.824 62.85L610.542 65.5037H615.259L621.746 68.1573H625.284L630.887 73.4646L635.014 77.5925V80.8359L636.784 86.7329L633.54 84.9638L630.887 80.8359L626.759 74.9389H625.284L626.759 80.8359V86.7329L623.81 93.8093H619.092L616.439 96.1681L615.259 99.7063V102.36L616.439 105.308L621.746 109.142L623.81 113.269L621.746 116.513H616.439L615.259 111.206L608.773 106.783L605.824 102.36C602.05 104.483 600.713 103.245 600.517 102.36L596.979 99.7063L591.966 105.308L596.979 109.142H600.517L605.824 111.206L599.043 115.628L605.824 121.82L608.773 126.243L610.542 132.435L608.773 140.396L605.824 146.293L599.043 149.536L591.966 151.01L588.133 154.549L584.3 151.01L580.467 153.664L578.698 158.382L584.3 165.163L588.133 171.65V179.021L584.3 182.265L581.646 185.803H578.698V182.265L573.685 179.021L567.788 175.188H565.725V179.021L562.776 175.188L560.417 168.407L558.058 165.163L555.11 166.932H552.161V163.099L550.097 158.382L545.38 154.549Z"/>
</mask>
<path d="M545.38 154.549L542.726 149.536L533.586 151.01L531.522 156.907L526.804 160.151L517.959 168.407L516.484 173.124V182.265C515.777 187.926 511.865 186.982 509.998 185.803L504.69 175.188L498.204 160.151V152.779H494.371H490.243V148.062H485.82L480.808 140.985L477.564 143.639L469.308 140.985H461.937L457.514 137.447L447.195 136.268L442.477 130.666L439.234 128.012L437.17 130.666L440.708 134.794L442.477 140.985H447.195L450.438 145.113L455.745 140.985L458.694 143.639L464.886 148.062V152.779L460.168 160.151L453.976 163.099L447.195 166.932L440.708 170.471L435.695 175.188H429.503L426.555 170.471V165.163L423.312 160.151L417.709 154.549V149.536L408.864 139.216L406.21 132.14L402.967 134.794L399.429 125.063H404.736L406.21 117.987V111.5L401.198 113.269L394.711 111.5H387.635L383.802 103.834V101.181H380.263L376.725 103.834L378.494 107.962L376.725 111.5L372.597 109.436L374.072 106.488L369.059 103.834L366.995 96.1681L361.688 92.9248L354.022 87.6175C350.719 84.551 351.663 87.9123 352.547 89.9763L356.38 94.399C359.427 96.6595 365.049 101.181 363.162 101.181C361.275 101.181 361.393 105.702 361.688 107.962L356.38 101.181L348.125 94.399L343.997 91.4505L336.625 94.399H332.498L329.844 99.1166L323.652 103.834V109.436L316.281 111.5H309.499L304.192 107.962L306.256 94.399H318.345L320.998 91.4505V85.2586L316.281 79.9513L323.652 78.4771L329.844 74.9389L338.1 68.4522H341.343L343.997 65.7985V60.1963L347.24 57.5427V61.3757L351.073 60.1963V56.0684L348.125 54.0045L343.997 56.0684L339.574 54.0045V46.3384L352.547 36.6083L361.688 29.8267L369.059 25.6988H381.738L389.404 29.8267L401.198 31.301C404.972 34.3674 402.77 36.1169 401.198 36.6083H396.48L389.404 34.2495L396.48 40.1465H401.198L404.736 36.6083L408.864 34.2495L410.633 31.301L415.645 34.2495L423.312 31.301H433.337L443.656 29.8267H450.143L446.605 25.6988L448.079 22.7503H454.271L458.399 25.6988L464.591 22.7503L469.308 19.8018H475.795V16.5584L485.525 14.1996H491.717L494.96 11.8408H500.562L506.165 14.1996H514.42L516.484 16.5584L514.42 19.8018L525.33 21.276H527.689H532.996H538.009H547.444L558.058 25.6988H564.25H569.263L570.737 21.276L580.467 22.7503L591.966 25.6988H601.991H608.773L616.439 29.8267H630.887L633.54 28.0576H640.617L651.526 29.8267L661.256 32.7752L667.448 35.134H674.23L678.358 39.5568H669.807L665.384 36.6083L661.256 39.5568L667.448 42.5053V45.7487L661.256 50.1714H655.064C648.931 51.8226 650.15 54.5942 651.526 55.7736L656.539 57.8375L658.013 65.5037V73.4646H655.064L647.398 65.5037L642.386 57.8375L644.745 48.1075L642.386 45.7487L638.848 48.1075H635.014H630.887V53.1199H623.81H613.195L608.773 55.7736L605.824 62.85L610.542 65.5037H615.259L621.746 68.1573H625.284L630.887 73.4646L635.014 77.5925V80.8359L636.784 86.7329L633.54 84.9638L630.887 80.8359L626.759 74.9389H625.284L626.759 80.8359V86.7329L623.81 93.8093H619.092L616.439 96.1681L615.259 99.7063V102.36L616.439 105.308L621.746 109.142L623.81 113.269L621.746 116.513H616.439L615.259 111.206L608.773 106.783L605.824 102.36C602.05 104.483 600.713 103.245 600.517 102.36L596.979 99.7063L591.966 105.308L596.979 109.142H600.517L605.824 111.206L599.043 115.628L605.824 121.82L608.773 126.243L610.542 132.435L608.773 140.396L605.824 146.293L599.043 149.536L591.966 151.01L588.133 154.549L584.3 151.01L580.467 153.664L578.698 158.382L584.3 165.163L588.133 171.65V179.021L584.3 182.265L581.646 185.803H578.698V182.265L573.685 179.021L567.788 175.188H565.725V179.021L562.776 175.188L560.417 168.407L558.058 165.163L555.11 166.932H552.161V163.099L550.097 158.382L545.38 154.549Z" stroke="#DBD7D1" stroke-width="2.21894" mask="url(#path-13-inside-2_2617_105)"/>
<path d="M638.223 93.2201V89.8561L641.185 91.9071L641.25 91.9522L641.326 91.9773L646.026 93.5441L644.991 95.6139H641.501H640.946V96.1686V100.591V101.146H641.501H643.852L646.254 104.882V107.963V108.046L646.278 108.126L647.433 111.879V115.959H642.68H642.451L642.288 116.121L639.247 119.163L635.99 118.62L635.945 118.612H635.899H633.376L631.134 117.491L630.817 117.333L630.54 117.554L629.066 118.734L628.609 119.099L628.997 119.536L631.162 121.97L630.546 124.434L629.286 123.534L627.935 119.75L628.718 117.403L631.116 115.004H634.425H634.587L634.725 114.916L638.852 112.262L638.918 112.22L638.97 112.161L643.098 107.443L643.335 107.172L643.184 106.846L641.415 103.013L641.409 103L641.403 102.988L638.223 96.9167V93.2201Z" stroke="#DBD7D1" stroke-width="1.10947"/>
<path d="M447.229 99.4063L443.481 100.656L442.839 100.87L443.175 101.457L445.522 105.565L447.384 109.555L443.641 112.299L437.134 107.962V101.182V100.952L436.972 100.79L429.763 93.5811V89.9264L436.607 83.6299L441.349 87.373L439.593 89.1282H436.58H436.025V89.6829V93.8108V94.1619L436.342 94.3122L441.944 96.9658L442.057 97.0192H442.182H445.71L447.229 99.4063Z" stroke="#DBD7D1" stroke-width="1.10947"/>
<path d="M397.954 97.6778H397.861L397.772 97.7086L391.387 99.9296L387.659 94.6049L389.288 89.7179L394.592 85.4752L397.497 89.7013L397.663 89.9418H397.954H402.672H403.227V89.387V85.2242H407.719V89.387V89.6888L407.973 89.8528L412.916 93.0511L417.126 98.0513L413.241 99.9942L406.084 97.7042L406.002 97.6778H405.915H397.954Z" stroke="#DBD7D1" stroke-width="1.10947"/>
<path d="M322.247 62.1582L322.27 62.2221L322.309 62.2784L327.321 69.6496L327.363 69.7108L327.419 69.7589L329.081 71.1837L327.452 73.2782L320.624 75.2697H315.902L317.39 71.3016L317.425 71.2074V71.1068V69.5555L321.11 65.5872L321.505 65.1615L321.062 64.7863L317.425 61.7091V59.3128V56.919H320.317L322.247 62.1582Z" stroke="#DBD7D1" stroke-width="1.10947"/>
<path d="M310.847 70.1068L307.105 71.9778V66.4566L311.49 64.538C312.415 64.1334 312.981 64.0107 313.296 64.0169C313.446 64.0198 313.498 64.0512 313.504 64.0553C313.505 64.0556 313.505 64.0559 313.505 64.0561L313.505 64.0561L313.507 64.0594C313.508 64.0626 313.511 64.0682 313.513 64.0768C313.541 64.1745 313.528 64.4022 313.393 64.7665C313.268 65.1052 313.072 65.4728 312.865 65.7938L312.845 65.8253L312.829 65.8592L310.847 70.1068Z" stroke="#DBD7D1" stroke-width="1.10947"/>
<path d="M289.692 42.835L286.91 39.8209L292.484 38.0474H299.608L301.952 39.5391L296.374 42.835H289.692Z" stroke="#DBD7D1" stroke-width="1.10947"/>
<path d="M218.945 11.7653V9.44819H228.415H228.546L228.663 9.38962L235.082 6.18027L244.062 4.44225L258.423 6.20072L258.555 6.21698L258.681 6.17092L267.434 2.96147H284.437H296.405L302.774 5.88057L298.721 11.8243L298.704 11.8499L298.689 11.8773L296.128 16.7148L290.708 18.9968L290.672 19.0121L290.638 19.0324L286.215 21.6861L285.559 22.0798L286.138 22.5809L289.95 25.8852L286.284 27.8407L278.093 30.4735L272.214 31.9433L272.174 31.9532L272.137 31.9686L267.15 34.022L258.331 36.6678L258.277 36.6838L258.228 36.7101L249.972 41.1329L249.86 41.1932L249.785 41.2965L243.759 49.6178H238.621L232.508 45.1725V37.3582L235.28 32.9241C237.313 32.0411 238.393 30.7104 238.881 29.3603C239.373 27.997 239.246 26.6589 238.967 25.8194L238.951 25.7725L238.927 25.7292L235.389 19.2424L235.337 19.1473L235.253 19.0787L228.767 13.7714L228.613 13.646H228.415H223.513L218.945 11.7653Z" stroke="#DBD7D1" stroke-width="1.10947"/>
<path d="M207.01 11.6102L206.979 11.6208L206.948 11.6351L201.559 14.1882L195.56 11.9388L200.321 7.67873H207.186H210.134H210.689V7.12399V3.25597H220.454H220.486L220.518 3.25231L233.744 1.72621L227.007 6.6045L214.151 9.23417L214.119 9.24085L214.087 9.25138L207.01 11.6102Z" stroke="#DBD7D1" stroke-width="1.10947"/>
<path d="M193.462 26.527L193.296 26.3235H193.033H186.252H180.508L175.571 23.361L180.497 20.6514H186.192L192.847 22.0982L196.323 23.8362L196.44 23.8948H196.571H199.986L204.185 25.8543L208.52 31.0555L212.037 35.745C212.223 36.0389 212.345 36.349 212.367 36.6102C212.387 36.8528 212.324 37.0265 212.153 37.1635C211.951 37.3259 211.522 37.4977 210.672 37.5058C209.833 37.5137 208.653 37.3615 207.026 36.9547L206.959 36.9381H206.891H204.532H203.978V37.4929V41.6746L199.962 45.4226L193.357 43.4961L190.215 39.569L193.288 35.9837H198.34H198.895V35.4289V33.365V33.1669L198.77 33.0137L193.462 26.527Z" stroke="#DBD7D1" stroke-width="1.10947"/>
<path d="M119.227 20.6142L119.244 20.6076L119.26 20.5998L123.571 18.5879H128.657L134.129 20.6042L137.928 22.6495L138.229 22.8116L138.509 22.6156L141.122 20.7864L143.452 22.599L143.603 22.7158H143.793H146.447H147.956V25.4045V27.577L142.24 28.3935L142.219 28.3965L142.198 28.4012L136.951 29.5673H132.294H128.756H124.614L127.712 25.7543L127.981 25.4232L127.73 25.0782L125.371 21.8348L125.205 21.6064H124.923H119.026H118.81L118.651 21.7522L115.635 24.5166L114.507 22.4494L119.227 20.6142Z" stroke="#DBD7D1" stroke-width="1.10947"/>
<path d="M206.337 77.298V77.6037L206.595 77.767L211.187 80.6671L206.806 82.0506H201.457L199.584 80.8015L201.63 79.2101L201.645 79.1984L201.659 79.1856L206.337 75.0005V77.298Z" stroke="#DBD7D1" stroke-width="1.10947"/>
<mask id="path-25-inside-3_2617_105" fill="white">
<path d="M160.305 99.4125L149.985 107.373L148.511 110.322V116.809L141.139 119.462L136.422 123.295L130.82 127.128L133.178 133.91V139.217L129.345 141.281L127.576 139.217V131.551L122.269 128.898L117.846 127.128L111.065 131.551L102.809 128.898L93.3735 133.91L91.3095 139.217L88.0662 150.127L91.3095 156.908L96.0272 161.036L102.809 158.677L106.937 153.075C112.834 151.188 112.146 153.862 111.065 155.434L108.411 165.164L111.065 167.228H117.846V178.432L123.743 185.214H129.345L123.743 189.047L116.372 185.214L111.065 178.432L108.411 173.42H105.462L97.7963 170.471L93.3735 165.164H81.5795L68.606 156.908V150.127L63.0039 141.281L58.2863 133.91V127.128H55.3378V131.551L58.2863 137.153V146.883L55.3378 143.345L52.6841 137.153L50.6201 128.898V123.295L45.9025 116.809L43.8386 101.476L50.6201 92.336C53.1755 89.0927 58.876 82.3701 61.2348 81.4266C64.1833 80.2472 60.6451 74.645 55.3378 74.645C55.3378 70.8709 57.3034 62.851 58.2863 59.3128L55.3378 55.4797L49.1459 51.0569L40.8901 47.8136L31.4549 51.0569H28.5063L18.4814 55.4797L0.200684 62.5561L10.5205 54.0054L6.6874 51.0569L10.5205 49.5827L13.1741 44.8651H18.4814L22.9042 41.9166C19.8377 40.5013 20.2505 38.3784 20.8402 37.4938H26.7372L31.4549 35.135C30.0396 31.3609 33.4205 30.4174 35.2879 30.4174L39.121 28.6483L50.6201 25.9946H59.1708L79.5155 28.6483L87.7713 31.8916L99.8602 28.6483H107.526H116.962L125.217 33.3659L133.178 35.135V33.3659L140.255 31.8916L144.088 33.3659L149.985 31.8916H154.408V28.6483H157.356V31.8916L161.779 28.6483V25.9946L166.791 23.9307L168.266 28.6483L170.919 31.8916L177.996 28.6483H182.418V31.8916L177.996 35.135H170.919L169.285 37.82L175.637 39.8526L173.868 43.6857L166.791 41.9166L169.285 37.82L168.266 37.4938L164.138 39.8526L157.356 41.9166L152.049 44.8651L144.088 47.8136L140.255 54.0054L146.152 58.1334L149.985 61.0819L156.177 62.5561L154.408 69.6325L157.356 73.1707L161.779 69.6325V65.7995L166.791 63.4407L172.688 58.1334V54.0054L175.637 47.8136L180.649 44.8651L190.379 47.8136V51.0569L193.328 55.4797L201.289 51.0569L203.058 61.0819L206.301 65.7995L210.724 67.2737L206.301 71.4016L199.815 74.645H193.328H185.072L182.418 79.3626H187.431L185.072 85.5545L191.854 88.503L185.072 92.336H180.649V88.503H177.996L170.919 92.336L166.791 97.3485L160.305 99.4125Z"/>
</mask>
<path d="M160.305 99.4125L149.985 107.373L148.511 110.322V116.809L141.139 119.462L136.422 123.295L130.82 127.128L133.178 133.91V139.217L129.345 141.281L127.576 139.217V131.551L122.269 128.898L117.846 127.128L111.065 131.551L102.809 128.898L93.3735 133.91L91.3095 139.217L88.0662 150.127L91.3095 156.908L96.0272 161.036L102.809 158.677L106.937 153.075C112.834 151.188 112.146 153.862 111.065 155.434L108.411 165.164L111.065 167.228H117.846V178.432L123.743 185.214H129.345L123.743 189.047L116.372 185.214L111.065 178.432L108.411 173.42H105.462L97.7963 170.471L93.3735 165.164H81.5795L68.606 156.908V150.127L63.0039 141.281L58.2863 133.91V127.128H55.3378V131.551L58.2863 137.153V146.883L55.3378 143.345L52.6841 137.153L50.6201 128.898V123.295L45.9025 116.809L43.8386 101.476L50.6201 92.336C53.1755 89.0927 58.876 82.3701 61.2348 81.4266C64.1833 80.2472 60.6451 74.645 55.3378 74.645C55.3378 70.8709 57.3034 62.851 58.2863 59.3128L55.3378 55.4797L49.1459 51.0569L40.8901 47.8136L31.4549 51.0569H28.5063L18.4814 55.4797L0.200684 62.5561L10.5205 54.0054L6.6874 51.0569L10.5205 49.5827L13.1741 44.8651H18.4814L22.9042 41.9166C19.8377 40.5013 20.2505 38.3784 20.8402 37.4938H26.7372L31.4549 35.135C30.0396 31.3609 33.4205 30.4174 35.2879 30.4174L39.121 28.6483L50.6201 25.9946H59.1708L79.5155 28.6483L87.7713 31.8916L99.8602 28.6483H107.526H116.962L125.217 33.3659L133.178 35.135V33.3659L140.255 31.8916L144.088 33.3659L149.985 31.8916H154.408V28.6483H157.356V31.8916L161.779 28.6483V25.9946L166.791 23.9307L168.266 28.6483L170.919 31.8916L177.996 28.6483H182.418V31.8916L177.996 35.135H170.919L169.285 37.82L175.637 39.8526L173.868 43.6857L166.791 41.9166L169.285 37.82L168.266 37.4938L164.138 39.8526L157.356 41.9166L152.049 44.8651L144.088 47.8136L140.255 54.0054L146.152 58.1334L149.985 61.0819L156.177 62.5561L154.408 69.6325L157.356 73.1707L161.779 69.6325V65.7995L166.791 63.4407L172.688 58.1334V54.0054L175.637 47.8136L180.649 44.8651L190.379 47.8136V51.0569L193.328 55.4797L201.289 51.0569L203.058 61.0819L206.301 65.7995L210.724 67.2737L206.301 71.4016L199.815 74.645H193.328H185.072L182.418 79.3626H187.431L185.072 85.5545L191.854 88.503L185.072 92.336H180.649V88.503H177.996L170.919 92.336L166.791 97.3485L160.305 99.4125Z" stroke="#DBD7D1" stroke-width="2.21894" mask="url(#path-25-inside-3_2617_105)"/>
<path d="M155.795 158.026L151.905 160.187H144.691L146.495 156.579H149.042L155.795 158.026Z" stroke="#DBD7D1" stroke-width="1.10947"/>
<path d="M129.968 151.743L129.936 151.719L129.9 151.7L124.93 149.069L123.591 148.028H131.561L139.978 152.672L141.616 153.654L134.204 154.849L129.968 151.743Z" stroke="#DBD7D1" stroke-width="1.10947"/>
<path d="M135.832 84.9987H128.546L130.842 81.0957H137.946L140.729 84.1575L140.784 84.218L140.854 84.2601L143.803 86.0292L143.934 86.1082H144.088H146.777V89.6406L141.694 92.3028V88.502V87.9473H141.14H135.832H135.459L135.319 88.2927L132.133 96.1114L129.227 98.2912L128.197 96.438L130.977 90.3212L136.187 85.9796L137.364 84.9987H135.832Z" stroke="#DBD7D1" stroke-width="1.10947"/>
<path d="M188.067 16.4657L188.184 16.5243H188.315H195.312L193.47 18.0312L180.589 15.6653L183.054 13.959L188.067 16.4657Z" stroke="#DBD7D1" stroke-width="1.10947"/>
<path d="M189.068 5.02544H194.2L192.69 8.04388H189.001L186.026 6.98121L189.068 5.02544Z" stroke="#DBD7D1" stroke-width="1.10947"/>
<path d="M357.855 62.8156H358.189L358.345 62.5204L360.999 57.5079L360.999 57.508L361.005 57.4965L362.768 53.969L364.237 51.3259L364.431 50.9764L364.161 50.6817L361.063 47.3025V44.6748L366.876 42.7372L367.06 42.6759L367.165 42.5133L370.668 37.1251L373.782 39.5722L368.702 43.8506L368.429 44.0801L368.525 44.4234L369.999 49.7307L370.112 50.137H370.533H380.455L383.213 51.1976L380.385 53.1554H374.661H374.106V53.7102V56.6936H370.533H369.979V57.2484V61.9702L366.527 64.3598H363.752H363.657L363.568 64.3909L357.94 66.3609L355.224 64.46L355.081 64.3598H354.906H350.49L352.721 62.8156H357.855Z" stroke="#DBD7D1" stroke-width="1.10947"/>
<path d="M620.567 213.19H623.436L621.395 214.859L621.072 215.123L621.236 215.507L622.869 219.318L621.851 220.505L620.171 217.384L619.733 216.571L619.221 217.34L618.041 219.109L617.948 219.248V219.416V224.047L614.635 223.384V217.752L617.25 211.068L617.356 210.799L617.195 210.558C616.63 209.71 616.732 208.879 617.135 208.118C617.552 207.333 618.273 206.673 618.811 206.315L619.058 206.15V205.936C619.067 205.93 619.079 205.923 619.094 205.916C619.229 205.846 619.471 205.775 619.84 205.722C620.566 205.617 621.602 205.604 622.791 205.656C624.963 205.749 627.542 206.052 629.425 206.328C629.347 207.111 629.075 207.594 628.731 207.898C628.31 208.271 627.687 208.457 626.898 208.468C625.309 208.491 623.339 207.799 621.994 207.126L621.637 206.947L621.354 207.23L619.29 209.294L619.056 209.528L619.151 209.846L620.035 212.794L620.154 213.19H620.567ZM619.021 205.962C619.021 205.962 619.022 205.96 619.025 205.958C619.023 205.96 619.021 205.962 619.021 205.962Z" stroke="#DBD7D1" stroke-width="1.10947"/>
</svg>
